<mxfile host="app.diagrams.net" modified="2023-05-07T05:17:09.770Z" agent="Mozilla/5.0 (Windows NT 10.0; Win64; x64) AppleWebKit/537.36 (KHTML, like Gecko) Chrome/112.0.0.0 Safari/537.36" etag="-ZbW_edX7LpZhQVJhfgT" version="21.2.9" type="device">
  <diagram id="C5RBs43oDa-KdzZeNtuy" name="Page-1">
    <mxGraphModel dx="1434" dy="796" grid="1" gridSize="10" guides="1" tooltips="1" connect="1" arrows="1" fold="1" page="1" pageScale="1" pageWidth="827" pageHeight="1169" math="0" shadow="0">
      <root>
        <mxCell id="WIyWlLk6GJQsqaUBKTNV-0" />
        <mxCell id="WIyWlLk6GJQsqaUBKTNV-1" parent="WIyWlLk6GJQsqaUBKTNV-0" />
        <mxCell id="QtpTbUjRMV8pVH-vdCRg-16" value="" style="edgeStyle=orthogonalEdgeStyle;rounded=0;orthogonalLoop=1;jettySize=auto;html=1;exitX=0.5;exitY=1;exitDx=0;exitDy=0;" edge="1" parent="WIyWlLk6GJQsqaUBKTNV-1" source="QtpTbUjRMV8pVH-vdCRg-29" target="QtpTbUjRMV8pVH-vdCRg-20">
          <mxGeometry relative="1" as="geometry">
            <mxPoint x="200" y="160" as="sourcePoint" />
          </mxGeometry>
        </mxCell>
        <mxCell id="QtpTbUjRMV8pVH-vdCRg-17" value="arr - массив символов строки&lt;br&gt;len - длина массива arr&lt;br&gt;n = 0 - счётчик" style="text;html=1;strokeColor=none;fillColor=none;align=center;verticalAlign=middle;whiteSpace=wrap;rounded=0;" vertex="1" parent="WIyWlLk6GJQsqaUBKTNV-1">
          <mxGeometry x="115" y="80" width="170" height="40" as="geometry" />
        </mxCell>
        <mxCell id="QtpTbUjRMV8pVH-vdCRg-18" value="" style="edgeStyle=orthogonalEdgeStyle;rounded=0;orthogonalLoop=1;jettySize=auto;html=1;" edge="1" parent="WIyWlLk6GJQsqaUBKTNV-1" source="QtpTbUjRMV8pVH-vdCRg-20" target="QtpTbUjRMV8pVH-vdCRg-22">
          <mxGeometry relative="1" as="geometry" />
        </mxCell>
        <mxCell id="QtpTbUjRMV8pVH-vdCRg-19" value="" style="edgeStyle=orthogonalEdgeStyle;rounded=0;orthogonalLoop=1;jettySize=auto;html=1;" edge="1" parent="WIyWlLk6GJQsqaUBKTNV-1" source="QtpTbUjRMV8pVH-vdCRg-20" target="QtpTbUjRMV8pVH-vdCRg-27">
          <mxGeometry relative="1" as="geometry" />
        </mxCell>
        <mxCell id="QtpTbUjRMV8pVH-vdCRg-20" value="от i до len-1&lt;br&gt;с шагом 1" style="shape=hexagon;perimeter=hexagonPerimeter2;whiteSpace=wrap;html=1;fixedSize=1;rounded=1;" vertex="1" parent="WIyWlLk6GJQsqaUBKTNV-1">
          <mxGeometry x="140" y="230" width="120" height="80" as="geometry" />
        </mxCell>
        <mxCell id="QtpTbUjRMV8pVH-vdCRg-21" value="" style="edgeStyle=orthogonalEdgeStyle;rounded=0;orthogonalLoop=1;jettySize=auto;html=1;" edge="1" parent="WIyWlLk6GJQsqaUBKTNV-1" source="QtpTbUjRMV8pVH-vdCRg-22" target="QtpTbUjRMV8pVH-vdCRg-24">
          <mxGeometry relative="1" as="geometry" />
        </mxCell>
        <mxCell id="QtpTbUjRMV8pVH-vdCRg-22" value="если i-ый элемент массива arr - &#39;a&#39;" style="rhombus;whiteSpace=wrap;html=1;rounded=1;" vertex="1" parent="WIyWlLk6GJQsqaUBKTNV-1">
          <mxGeometry x="85" y="340" width="230" height="80" as="geometry" />
        </mxCell>
        <mxCell id="QtpTbUjRMV8pVH-vdCRg-23" value="" style="edgeStyle=orthogonalEdgeStyle;rounded=0;orthogonalLoop=1;jettySize=auto;html=1;" edge="1" parent="WIyWlLk6GJQsqaUBKTNV-1" source="QtpTbUjRMV8pVH-vdCRg-24" target="QtpTbUjRMV8pVH-vdCRg-31">
          <mxGeometry relative="1" as="geometry" />
        </mxCell>
        <mxCell id="QtpTbUjRMV8pVH-vdCRg-24" value="перезаписываем i-ый элемент массива arr на &#39;A&#39;" style="whiteSpace=wrap;html=1;rounded=1;" vertex="1" parent="WIyWlLk6GJQsqaUBKTNV-1">
          <mxGeometry x="140" y="450" width="120" height="60" as="geometry" />
        </mxCell>
        <mxCell id="QtpTbUjRMV8pVH-vdCRg-25" value="ДА" style="text;html=1;strokeColor=none;fillColor=none;align=center;verticalAlign=middle;whiteSpace=wrap;rounded=0;" vertex="1" parent="WIyWlLk6GJQsqaUBKTNV-1">
          <mxGeometry x="190" y="420" width="60" height="30" as="geometry" />
        </mxCell>
        <mxCell id="QtpTbUjRMV8pVH-vdCRg-26" value="" style="edgeStyle=orthogonalEdgeStyle;rounded=0;orthogonalLoop=1;jettySize=auto;html=1;" edge="1" parent="WIyWlLk6GJQsqaUBKTNV-1" source="QtpTbUjRMV8pVH-vdCRg-27" target="QtpTbUjRMV8pVH-vdCRg-28">
          <mxGeometry relative="1" as="geometry" />
        </mxCell>
        <mxCell id="QtpTbUjRMV8pVH-vdCRg-27" value="выводим n" style="whiteSpace=wrap;html=1;rounded=1;" vertex="1" parent="WIyWlLk6GJQsqaUBKTNV-1">
          <mxGeometry x="310" y="240" width="120" height="60" as="geometry" />
        </mxCell>
        <mxCell id="QtpTbUjRMV8pVH-vdCRg-28" value="Конец" style="ellipse;whiteSpace=wrap;html=1;rounded=1;" vertex="1" parent="WIyWlLk6GJQsqaUBKTNV-1">
          <mxGeometry x="330" y="320" width="80" height="80" as="geometry" />
        </mxCell>
        <mxCell id="QtpTbUjRMV8pVH-vdCRg-29" value="Начало" style="ellipse;whiteSpace=wrap;html=1;aspect=fixed;" vertex="1" parent="WIyWlLk6GJQsqaUBKTNV-1">
          <mxGeometry x="160" y="130" width="80" height="80" as="geometry" />
        </mxCell>
        <mxCell id="QtpTbUjRMV8pVH-vdCRg-30" value="" style="edgeStyle=orthogonalEdgeStyle;rounded=0;orthogonalLoop=1;jettySize=auto;html=1;" edge="1" parent="WIyWlLk6GJQsqaUBKTNV-1" source="QtpTbUjRMV8pVH-vdCRg-31" target="QtpTbUjRMV8pVH-vdCRg-32">
          <mxGeometry relative="1" as="geometry" />
        </mxCell>
        <mxCell id="QtpTbUjRMV8pVH-vdCRg-31" value="если i-ый элемент массива arr - &#39;b&#39;" style="rhombus;whiteSpace=wrap;html=1;rounded=1;" vertex="1" parent="WIyWlLk6GJQsqaUBKTNV-1">
          <mxGeometry x="85" y="530" width="230" height="80" as="geometry" />
        </mxCell>
        <mxCell id="QtpTbUjRMV8pVH-vdCRg-32" value="перезаписываем i-ый элемент массива arr на &#39;B&#39;" style="whiteSpace=wrap;html=1;rounded=1;" vertex="1" parent="WIyWlLk6GJQsqaUBKTNV-1">
          <mxGeometry x="140" y="640" width="120" height="60" as="geometry" />
        </mxCell>
        <mxCell id="QtpTbUjRMV8pVH-vdCRg-33" value="" style="endArrow=classic;html=1;rounded=0;entryX=0.032;entryY=0.504;entryDx=0;entryDy=0;exitX=0.026;exitY=0.517;exitDx=0;exitDy=0;exitPerimeter=0;entryPerimeter=0;" edge="1" parent="WIyWlLk6GJQsqaUBKTNV-1" source="QtpTbUjRMV8pVH-vdCRg-22" target="QtpTbUjRMV8pVH-vdCRg-31">
          <mxGeometry width="50" height="50" relative="1" as="geometry">
            <mxPoint x="40" y="430" as="sourcePoint" />
            <mxPoint x="90" y="380" as="targetPoint" />
          </mxGeometry>
        </mxCell>
        <mxCell id="QtpTbUjRMV8pVH-vdCRg-34" value="НЕТ" style="text;html=1;strokeColor=none;fillColor=none;align=center;verticalAlign=middle;whiteSpace=wrap;rounded=0;" vertex="1" parent="WIyWlLk6GJQsqaUBKTNV-1">
          <mxGeometry x="80" y="400" width="60" height="30" as="geometry" />
        </mxCell>
        <mxCell id="QtpTbUjRMV8pVH-vdCRg-35" value="ДА" style="text;html=1;strokeColor=none;fillColor=none;align=center;verticalAlign=middle;whiteSpace=wrap;rounded=0;" vertex="1" parent="WIyWlLk6GJQsqaUBKTNV-1">
          <mxGeometry x="190" y="610" width="60" height="30" as="geometry" />
        </mxCell>
        <mxCell id="QtpTbUjRMV8pVH-vdCRg-36" value="" style="endArrow=classic;html=1;rounded=0;exitX=0;exitY=0.5;exitDx=0;exitDy=0;entryX=0;entryY=0.5;entryDx=0;entryDy=0;" edge="1" parent="WIyWlLk6GJQsqaUBKTNV-1" source="QtpTbUjRMV8pVH-vdCRg-32" target="QtpTbUjRMV8pVH-vdCRg-20">
          <mxGeometry width="50" height="50" relative="1" as="geometry">
            <mxPoint x="20" y="640" as="sourcePoint" />
            <mxPoint x="40" y="280" as="targetPoint" />
            <Array as="points">
              <mxPoint x="50" y="670" />
              <mxPoint x="50" y="270" />
            </Array>
          </mxGeometry>
        </mxCell>
        <mxCell id="QtpTbUjRMV8pVH-vdCRg-37" value="" style="endArrow=classic;html=1;rounded=0;exitX=0.035;exitY=0.513;exitDx=0;exitDy=0;exitPerimeter=0;" edge="1" parent="WIyWlLk6GJQsqaUBKTNV-1" source="QtpTbUjRMV8pVH-vdCRg-31">
          <mxGeometry width="50" height="50" relative="1" as="geometry">
            <mxPoint x="40" y="770" as="sourcePoint" />
            <mxPoint x="93" y="670" as="targetPoint" />
          </mxGeometry>
        </mxCell>
        <mxCell id="QtpTbUjRMV8pVH-vdCRg-38" value="НЕТ" style="text;html=1;strokeColor=none;fillColor=none;align=center;verticalAlign=middle;whiteSpace=wrap;rounded=0;" vertex="1" parent="WIyWlLk6GJQsqaUBKTNV-1">
          <mxGeometry x="85" y="585" width="60" height="30" as="geometry" />
        </mxCell>
      </root>
    </mxGraphModel>
  </diagram>
</mxfile>
